<?xml version="1.0" encoding="utf-8"?>
<!-- Generator: Adobe Illustrator 26.0.2, SVG Export Plug-In . SVG Version: 6.00 Build 0)  -->
<svg version="1.1" id="Calque_1" xmlns="http://www.w3.org/2000/svg" xmlns:xlink="http://www.w3.org/1999/xlink" x="0px" y="0px"
	 viewBox="0 0 841.89 595.28" style="enable-background:new 0 0 841.89 595.28;" xml:space="preserve">
<style type="text/css">
	.st0{fill:#142791;}
</style>
<g>
	<path class="st0" d="M398.06,286.38c2.17,1.15,3.84,2.76,5.03,4.84c1.19,2.08,1.78,4.47,1.78,7.19c0,2.69-0.59,5.08-1.78,7.17
		c-1.19,2.09-2.87,3.71-5.05,4.86s-4.71,1.72-7.58,1.72h-10.3c0,0,0,0,0,0v-27.49c0,0,0,0,0,0h10.3
		C393.36,284.65,395.89,285.23,398.06,286.38z M395.94,304.27c1.41-1.38,2.11-3.34,2.11-5.87c0-2.53-0.71-4.5-2.11-5.91
		c-1.41-1.41-3.38-2.11-5.91-2.11h-3.17c0,0,0,0,0,0v15.98c0,0,0,0,0,0h3.17C392.56,306.35,394.53,305.66,395.94,304.27z"/>
	<path class="st0" d="M412.8,311.09c-1.71-0.91-3.05-2.22-4.03-3.92c-0.98-1.7-1.47-3.68-1.47-5.95c0-2.24,0.5-4.22,1.49-5.93
		c0.99-1.71,2.35-3.02,4.07-3.93c1.72-0.91,3.65-1.37,5.79-1.37s4.07,0.46,5.8,1.37s3.08,2.23,4.07,3.93
		c0.99,1.71,1.49,3.69,1.49,5.93c0,2.25-0.5,4.22-1.51,5.93c-1,1.71-2.38,3.02-4.11,3.94c-1.74,0.91-3.67,1.37-5.82,1.37
		S414.51,312,412.8,311.09z M421.84,305.25c0.9-0.94,1.35-2.28,1.35-4.03c0-2.43-0.84-4.07-2.52-4.94
		c-0.71-0.37-1.51-0.53-2.31-0.49c-1.18,0.06-2.16,0.53-2.96,1.38c-0.86,0.93-1.29,2.28-1.29,4.05c0,1.75,0.42,3.09,1.27,4.03
		c0.85,0.94,1.91,1.41,3.19,1.41S420.94,306.19,421.84,305.25z"/>
	<path class="st0" d="M433.63,295.27c0.93-1.7,2.22-3,3.88-3.92c1.66-0.91,3.56-1.37,5.7-1.37c2.74,0,5.03,0.72,6.87,2.15
		c1.84,1.44,3.05,3.46,3.62,6.07c0,0,0,0,0,0h-7.13c0,0,0,0,0,0c-0.6-1.67-1.76-2.51-3.49-2.51c-1.23,0-2.21,0.48-2.94,1.43
		c-0.73,0.95-1.1,2.32-1.1,4.09c0,1.78,0.37,3.14,1.1,4.09c0.73,0.95,1.71,1.43,2.94,1.43c1.72,0,2.88-0.83,3.49-2.51c0,0,0,0,0,0
		h7.13c0,0,0,0,0,0c-0.57,2.56-1.79,4.57-3.64,6.03c-1.85,1.46-4.14,2.19-6.85,2.19c-2.14,0-4.04-0.46-5.7-1.37
		c-1.66-0.91-2.95-2.22-3.88-3.92c-0.93-1.7-1.39-3.68-1.39-5.95C432.24,298.95,432.7,296.96,433.63,295.27z"/>
	<path class="st0" d="M462.63,306.97h8.77c0,0,0,0,0,0v5.17c0,0,0,0,0,0h-15.47c0,0,0,0,0,0v-27.49c0,0,0,0,0,0h6.7c0,0,0,0,0,0
		L462.63,306.97C462.63,306.97,462.63,306.97,462.63,306.97z"/>
	<path class="st0" d="M478.78,311.09c-1.71-0.91-3.05-2.22-4.03-3.92c-0.98-1.7-1.47-3.68-1.47-5.95c0-2.24,0.5-4.22,1.49-5.93
		c0.99-1.71,2.35-3.02,4.07-3.93c1.72-0.91,3.65-1.37,5.79-1.37s4.07,0.46,5.8,1.37s3.08,2.23,4.07,3.93
		c0.99,1.71,1.49,3.69,1.49,5.93c0,2.25-0.5,4.22-1.51,5.93c-1,1.71-2.38,3.02-4.11,3.94c-1.74,0.91-3.67,1.37-5.82,1.37
		S480.49,312,478.78,311.09z M487.83,305.25c0.9-0.94,1.35-2.28,1.35-4.03c0-2.43-0.84-4.07-2.52-4.94
		c-0.71-0.37-1.51-0.53-2.31-0.49c-1.18,0.06-2.16,0.53-2.96,1.38c-0.86,0.93-1.29,2.28-1.29,4.05c0,1.75,0.42,3.09,1.27,4.03
		c0.85,0.94,1.91,1.41,3.19,1.41S486.93,306.19,487.83,305.25z"/>
	<path class="st0" d="M499.61,295.27c0.93-1.7,2.22-3,3.88-3.92c1.66-0.91,3.56-1.37,5.7-1.37c2.74,0,5.03,0.72,6.87,2.15
		c1.84,1.44,3.05,3.46,3.62,6.07c0,0,0,0,0,0h-7.13c0,0,0,0,0,0c-0.6-1.67-1.76-2.51-3.49-2.51c-1.23,0-2.21,0.48-2.94,1.43
		c-0.73,0.95-1.1,2.32-1.1,4.09c0,1.78,0.37,3.14,1.1,4.09c0.73,0.95,1.71,1.43,2.94,1.43c1.72,0,2.88-0.83,3.49-2.51c0,0,0,0,0,0
		h7.13c0,0,0,0,0,0c-0.57,2.56-1.79,4.57-3.64,6.03c-1.85,1.46-4.14,2.19-6.85,2.19c-2.14,0-4.04-0.46-5.7-1.37
		c-1.66-0.91-2.95-2.22-3.88-3.92c-0.93-1.7-1.39-3.68-1.39-5.95C498.23,298.95,498.69,296.96,499.61,295.27z"/>
	<path class="st0" d="M529.94,302.98v9.16c0,0,0,0,0,0h-6.7c0,0,0,0,0,0v-28.98c0,0,0,0,0,0h6.7c0,0,0,0,0,0v16.02V302.98z"/>
	<path class="st0" d="M533.08,299.18l6.62-8.89c0,0,0,0,0,0h8.26c0,0,0,0,0,0l-9.08,10.96c0,0,0,0,0,0l9.16,10.89c0,0,0,0,0,0h-8.3
		c0,0,0,0,0,0l-6.66-9.16l-1.05-1.37c-0.25-0.32-0.24-0.77,0-1.08L533.08,299.18z"/>
</g>
<g>
	<path class="st0" d="M344.26,285.5c-0.85-1.8-2.09-3.34-3.72-4.57c-2.28-4.89-7.52-7.88-15.13-7.88h-15.95l-11.88,40.3h5.09
		l-1.35,4.6h5.09l-1.35,4.6H321c12.78,0,23.9-8.41,27.36-20.15C350.53,295.04,348.91,288.99,344.26,285.5z M301.3,310.72
		l10.32-35.01h12.78c3.92,0,7.1,0.86,9.47,2.4c-1.46-0.29-3.02-0.45-4.72-0.45h-15.95l-9.74,33.06H301.3z M305.03,315.31
		l10.32-35.01h12.78c3.89,0,7.05,0.85,9.41,2.37c-1.44-0.28-2.99-0.42-4.66-0.42h-15.95l-9.74,33.06H305.03z M345.42,302.41
		c-3.02,10.25-12.47,17.5-23.87,17.5h-12.78l10.32-35.01h12.78C343.27,284.91,348.44,292.16,345.42,302.41z"/>
	<path class="st0" d="M321,324.74h-18.86l1.36-4.6h-5.09l1.35-4.6h-5.09l13.16-44.66h17.58c7.93,0,14.04,3.14,16.87,8.65
		c1.56,1.26,2.8,2.79,3.71,4.56c5.16,4.16,6.79,11.02,4.46,18.93C346.68,315.81,334.57,324.74,321,324.74z M307.96,320.38H321
		c11.65,0,22.04-7.64,25.27-18.59c1.88-6.37,0.7-11.54-3.32-14.55l-0.43-0.33l-0.23-0.49c-0.7-1.49-1.73-2.75-3.06-3.75l-0.43-0.33
		l-0.23-0.49c-1.99-4.27-6.67-6.62-13.16-6.62h-14.32l-10.59,35.95h5.09l-1.35,4.6h5.09L307.96,320.38z"/>
	<g>
		<circle class="st0" cx="328.56" cy="299.14" r="4.7"/>
		<path class="st0" d="M328.94,309.73h-0.77c-0.99,0-1.8-0.81-1.8-1.8v-9.14c0-0.99,0.81-1.8,1.8-1.8h0.77c0.99,0,1.8,0.81,1.8,1.8
			v9.14C330.74,308.93,329.93,309.73,328.94,309.73z"/>
	</g>
</g>
</svg>
